<svg width="154" height="40" viewBox="0 0 154 40" fill="none" xmlns="http://www.w3.org/2000/svg">
    <path
        d="M18.7469 36C16.7087 36 14.7904 35.7144 12.992 35.1434C11.1936 34.5438 9.61999 33.6586 8.27119 32.488C6.95237 31.2887 5.9033 29.804 5.124 28.0337C4.37467 26.2349 4 24.1505 4 21.7806C4 19.4393 4.38965 17.3692 5.16896 15.5703C5.94826 13.743 6.99733 12.2154 8.31615 10.9876C9.66495 9.73127 11.2236 8.77475 12.992 8.11803C14.7604 7.46132 16.6188 7.13296 18.567 7.13296C20.7251 7.13296 22.5834 7.50414 24.1421 8.24652C25.7306 8.96035 27.0495 9.81693 28.0985 10.8163L24.0521 15.5275C23.3328 14.9279 22.5685 14.4425 21.7592 14.0713C20.9799 13.6716 20.0057 13.4717 18.8368 13.4717C17.8477 13.4717 16.9335 13.6573 16.0942 14.0285C15.255 14.3997 14.5206 14.9279 13.8912 15.6132C13.2617 16.2984 12.7672 17.1408 12.4075 18.1401C12.0778 19.1395 11.913 20.2673 11.913 21.5236C11.913 24.1505 12.5274 26.1635 13.7563 27.5626C14.9852 28.9617 16.9185 29.6612 19.5561 29.6612C19.9758 29.6612 20.3804 29.6184 20.7701 29.5327C21.1897 29.4471 21.5344 29.3186 21.8041 29.1473V25.2926H17.488V19.2965H28.6381V32.5736C27.589 33.5159 26.1952 34.3296 24.4568 35.0149C22.7183 35.6716 20.815 36 18.7469 36Z"
        fill="white" />
    <path d="M31.8969 35.486V14.0713H39.6301V35.486H31.8969Z" fill="white" />
    <path
        d="M42.2416 35.486V31.5457L50.784 19.8105H43.2307V14.0713H60.4054V18.0116L51.863 29.7469H60.6752V35.486H42.2416Z"
        fill="white" />
    <path
        d="M68.913 36C67.864 36 66.9198 35.8286 66.0806 35.486C65.2413 35.1148 64.5219 34.6294 63.9225 34.0298C63.353 33.4302 62.9184 32.7307 62.6186 31.9312C62.3189 31.1317 62.169 30.2894 62.169 29.4042C62.169 27.1771 63.1282 25.4354 65.0465 24.1791C66.9648 22.8942 70.082 22.0376 74.3981 21.6093C74.2183 20.1245 73.1692 19.3822 71.2509 19.3822C70.4417 19.3822 69.5874 19.5392 68.6882 19.8533C67.789 20.1388 66.755 20.5814 65.586 21.181L62.8884 16.3841C64.477 15.4704 66.0806 14.7709 67.6991 14.2855C69.3177 13.8001 71.0112 13.5574 72.7796 13.5574C75.687 13.5574 77.965 14.3568 79.6135 15.9558C81.292 17.5262 82.1312 20.0674 82.1312 23.5794V35.486H75.8369L75.2973 33.4302H75.1175C74.2183 34.2011 73.2591 34.8293 72.2401 35.3147C71.2509 35.7715 70.1419 36 68.913 36ZM71.6106 30.3465C72.2401 30.3465 72.7496 30.218 73.1393 29.961C73.5589 29.6755 73.9785 29.3186 74.3981 28.8903V25.9779C72.5398 26.2349 71.2659 26.6203 70.5765 27.1343C69.8872 27.6482 69.5425 28.205 69.5425 28.8046C69.5425 29.8325 70.2319 30.3465 71.6106 30.3465Z"
        fill="white" />
    <path
        d="M91.1742 36C89.8553 36 88.7463 35.8144 87.8471 35.4432C86.9779 35.0434 86.2735 34.4867 85.734 33.7728C85.1945 33.059 84.8048 32.2167 84.565 31.2459C84.3552 30.2465 84.2503 29.1473 84.2503 27.948V5.67676H91.9834V28.205C91.9834 28.9474 92.1183 29.4471 92.3881 29.704C92.6878 29.961 92.9726 30.0895 93.2423 30.0895C93.3922 30.0895 93.5121 30.0895 93.602 30.0895C93.7219 30.0895 93.8718 30.061 94.0516 30.0038C94.0516 30.0038 95.3704 35.229 94.9508 35.4003C94.5312 35.5717 94.0066 35.7144 93.3772 35.8286C92.7777 35.9429 92.0434 36 91.1742 36Z"
        fill="white" />
    <path
        d="M102.812 36C101.763 36 100.819 35.8286 99.9796 35.486C99.1404 35.1148 98.421 34.6294 97.8216 34.0298C97.2521 33.4302 96.8175 32.7307 96.5177 31.9312C96.218 31.1317 96.0681 30.2894 96.0681 29.4042C96.0681 27.1771 97.0273 25.4354 98.9456 24.1791C100.864 22.8942 103.981 22.0376 108.297 21.6093C108.117 20.1245 107.068 19.3822 105.15 19.3822C104.341 19.3822 103.487 19.5392 102.587 19.8533C101.688 20.1388 100.654 20.5814 99.4851 21.181L96.7875 16.3841C98.3761 15.4704 99.9796 14.7709 101.598 14.2855C103.217 13.8001 104.91 13.5574 106.679 13.5574C109.586 13.5574 111.864 14.3568 113.513 15.9558C115.191 17.5262 116.03 20.0674 116.03 23.5794V35.486H109.736L109.196 33.4302H109.017C108.117 34.2011 107.158 34.8293 106.139 35.3147C105.15 35.7715 104.041 36 102.812 36ZM105.51 30.3465C106.139 30.3465 106.649 30.218 107.038 29.961C107.458 29.6755 107.878 29.3186 108.297 28.8903V25.9779C106.439 26.2349 105.165 26.6203 104.476 27.1343C103.786 27.6482 103.442 28.205 103.442 28.8046C103.442 29.8325 104.131 30.3465 105.51 30.3465Z"
        fill="white" />
    <path
        d="M130.648 36C129.659 36 128.685 35.7715 127.726 35.3147C126.767 34.8293 125.853 34.1155 124.983 33.1732H124.804L124.174 35.486H118.149V5.67676H125.883V12.6151L125.703 15.6988C126.482 15.0136 127.351 14.4853 128.31 14.1141C129.27 13.743 130.244 13.5574 131.233 13.5574C132.552 13.5574 133.751 13.8143 134.83 14.3283C135.909 14.8422 136.823 15.5703 137.572 16.5126C138.351 17.4548 138.951 18.597 139.371 19.9389C139.79 21.2809 140 22.7657 140 24.3932C140 26.2491 139.73 27.9052 139.191 29.3614C138.681 30.7891 137.992 32.0026 137.123 33.0019C136.253 33.9727 135.249 34.7151 134.11 35.229C133.001 35.743 131.847 36 130.648 36ZM128.76 30.0038C129.659 30.0038 130.438 29.6041 131.098 28.8046C131.757 28.0051 132.087 26.5775 132.087 24.5217C132.087 22.7514 131.817 21.4808 131.278 20.7099C130.768 19.9389 129.989 19.5535 128.94 19.5535C128.34 19.5535 127.801 19.6677 127.321 19.8961C126.872 20.1245 126.392 20.5243 125.883 21.0953V28.9759C126.332 29.3757 126.797 29.6469 127.276 29.7897C127.756 29.9325 128.25 30.0038 128.76 30.0038Z"
        fill="white" />
    <path
        d="M31.3789 7.74897C31.3789 6.66593 31.7706 5.77035 32.5541 5.06221C33.3375 4.35407 34.3727 4 35.6598 4C36.9469 4 37.9821 4.35407 38.7655 5.06221C39.5489 5.77035 39.9407 6.66593 39.9407 7.74897C39.9407 8.80425 39.5489 9.68594 38.7655 10.3941C37.9821 11.1022 36.9469 11.4563 35.6598 11.4563C34.3727 11.4563 33.3375 11.1022 32.5541 10.3941C31.7706 9.68594 31.3789 8.80425 31.3789 7.74897Z"
        fill="white" />
    <circle cx="145.573" cy="32" r="4" fill="#FF8E4E" />
    <path d="M146.925 1.00137H145.073V6H143.827V1.00137H142V0H146.925V1.00137Z" fill="white" />
    <path
        d="M149.266 0L150.819 4.35165L152.364 0H154V6H152.75V4.35989L152.875 1.52885L151.243 6H150.388L148.76 1.53297L148.884 4.35989V6H147.639V0H149.266Z"
        fill="white" />
</svg>